<svg xmlns="http://www.w3.org/2000/svg" baseProfile="basic" viewBox="0 0 48 48"><path fill="#212121" d="M23.7 37.6h1.2c.8 0 1.6-.4 2.1-1.1l7.5-9.8 7.5 9.8a2.7 2.7 0 0 0 2.1 1h1.2L35.8 25l9-12h-1.1c-.8 0-1.6.4-2.1 1l-7.1 9.3-7-9.2a2.7 2.7 0 0 0-2.2-1.1h-1.2l9.1 12-9.5 12.6z"/><path fill="#212121" d="M24 26v-3c0-6.7-6-12-12.8-10.9C5.8 13.1 2 18 2 23.3V26C2 32.7 6.8 38 12.9 38c5 0 9.4-3.3 10.7-8h-1a1.6 1.6 0 0 0-1.5 1 9 9 0 0 1-10.2 4.8c-4.1-1-6.9-4.8-6.9-9V26h20zM4 23.7c0-4.7 2.8-8.5 7-9.5A9 9 0 0 1 22 23v1H4v-.3z"/></svg>