<svg xmlns="http://www.w3.org/2000/svg" viewBox="0 0 24 24"><path d="M23.25 6.49 24 4.53l-.03-.12-7.47 1.97c.8-1.15.52-2.08.52-2.08s-2.39 1.53-4.2 1.49c-1.8-.04-2.38-.52-5.15.36s-3.55 3.59-4.35 4.17C2.52 10.9 0 12.8 0 12.8v.03l2.28-.72s-.63.58-1.95 2.37l-.06-.06v.01s1.07 1.63 2.1 1.33a2.14 2.14 0 0 0 .36-.15c.42.23.97.46 1.57.52 0 0-.4-.47-.75-1.01l.24-.16.86.32-.1-.81h.02l.85.3-.11-.73a5.65 5.65 0 0 1 .32-.16l.89-3.35 3.66-2.5-.3.74c-.73 1.83-2.13 2.26-2.13 2.26l-.58.22c-.43.5-.61.63-.76 2.35.35-.09.68-.1.98-.03 1.57.42 2.1 2.3 1.69 2.83-.1.13-.36.35-.68.61h-.63v.52l-.07.05h-.65v.5l-.18.13c-.6.01-1.37-.52-1.37-.52 0 .48.4 1.23.4 1.23l.07-.04-.06.05s1.63 1.08 2.65.68c.9-.36 3.26-2.21 5.3-3.1L20 14.9l.81-2.1-4.68 1.23v-1.89l5.5-1.45.8-2.1-6.3 1.67v-1.9zm-11.17 4 1.46-.38.02.07-.45 1.18-1.52.4zm.5 2.53-1.5.4.48-1.27 1.46-.39.02.08zm1.98-.43-1.52.4.5-1.27 1.45-.38.02.07z"/></svg>