<svg xmlns="http://www.w3.org/2000/svg" baseProfile="basic" viewBox="0 0 48 48"><path fill="#f50057" d="M24.5 32.9v-.1zM27.4 8.6s-.4-1.3.1-2.5.5-1.8-.5-3c2-.1 2.8 1.3 2.8 1.3v.1c0 .8-.3 1.5-1 2a3 3 0 0 0-1.4 2.1z"/><path fill="#f50057" d="M41.6 36.2c0-.2.4-3-.3-4.3-1.5 4.2-3 8.1-7.4 10.9.6-1.3 1.6-3.3 2.6-6.3-3 4-9 8-13.5 8.3 3-1.7 4.8-3.9 5.5-5.3 0 0-1.8.5-3.9.8 2.9-1.8 4.9-5 3.9-9.8-2 6.3-4.8 8.3-8.4 8.6-3.6.4-6.9-1.5-6.9-1.5l1.3-.1s-3.3-2.5-2.1-5.8c0-.1 0-.3.2-.4.8-1.8 3.6-.9 3.3 1 0 0 .8 2.4 3.2 1.8.8-1.2 1.3-2.5 1.3-2.5l.4 1.6s1.7-.7 1.7-2c1.5.5 1.9 1.2 2 1.5-.3-1.4-2.6-11-14.5-10.9l-2.1 2c-.2 0-.4 0-.4-.2l.2-1.6.1-.1v.1l-1 .8s-.3 0-.3-.2l.1-1c-1.7-.8-1.9-2.7-1.9-2.7s-2.1-.6-1.2-3.4C4 14 5.2 13.8 5.7 14c.7.1 1.3.1 2-.1.9-.4 2-1 2.8-2.4C12 9 14.3 8 19.1 8c6.5 0 9 2 9.4 2.2-.2-.2-1.3-1.6 1-3.8 2.3-2.2 1.9-2.7 1.8-2.8a8 8 0 0 1 5.2 7.4c.5 6-6.5 7.3-6.5 7.3s9 1.7 9.1-6.8c1.8 1 5.4 4.8 5.9 12.9.5 7.9-3.2 11.6-3.4 11.8zM7.8 21.9v.1-.1zM7.8 21.9v.1-.1z"/></svg>