<svg xmlns="http://www.w3.org/2000/svg" viewBox="0 0 48 48"><path fill="#388e3c" d="m17.2 19.1-4.9 2.7c-.2.1-.3.3-.3.5v5.5c0 .2.1.4.3.5l5 2.7h.5l5-2.7.2-.5v-5.5c0-.2-.1-.4-.3-.5l-4.9-2.7a.6.6 0 0 0-.6 0m25.3 5-.9.4v1l.9.5.9-.5v-1l-.9-.5"/><path fill="#37474f" d="M35.8 13.4 33.4 12H33l-.1.2v8.1l-2.2-1.2a.6.6 0 0 0-.6 0l-4.9 2.7c-.2 0-.3.3-.3.5v5.4c0 .2.1.4.3.5l5 2.7h.5l5-2.7.2-.5v-14l-.2-.3zm-3 13-2.2 1.3h-.2L28 26.5l-.1-.3v-2.4l.1-.3 2.3-1.2h.2l2.3 1.2.1.3v2.4l-.1.3z"/><path fill="#2e7d32" d="M17.2 19.1 12 27.8c0 .2.1.4.3.5l5 2.7h.5l5.2-8.7c0-.2-.1-.4-.3-.5l-4.9-2.7a.6.6 0 0 0-.6 0"/><path fill="#4caf50" d="m17.2 19.1-4.9 2.7c-.2.1-.3.3-.3.5l5.2 8.7h.6l4.9-2.7c.2-.1.3-.3.3-.5L17.8 19a.6.6 0 0 0-.6 0"/><path fill="#37474f" d="M47.7 21.8 42.8 19a.6.6 0 0 0-.6 0l-4.9 2.7c-.2 0-.3.3-.3.5v5.4c0 .2.1.4.3.5l5 2.7h.5l2.3-1.2c.2-.1.2-.4 0-.6l-5-2.6-.1-.3v-2.4l.1-.3 2.3-1.2h.2l2.3 1.2.1.3v2a.2.2 0 0 0 .4.2l2.4-1.4.2-.4v-1.9c0-.2-.1-.4-.3-.5zm-37 0L5.8 19a.6.6 0 0 0-.6 0L.3 21.8c-.2 0-.3.3-.3.5v7.5a.2.2 0 0 0 .4.2l2.4-1.4.2-.4v-4.4l.1-.3 2.3-1.2h.2L8 23.5l.1.3v4.4c0 .1 0 .3.2.4l2.4 1.4h.3l.1-.2v-7.5c0-.2-.1-.4-.3-.5z"/></svg>