<svg width="531" height="100" viewBox="0 0 531 100" fill="none" xmlns="http://www.w3.org/2000/svg">
<rect x="138" width="117" height="100" fill="#052131"/>
<path d="M151.27 58L154.586 40.9375H156.273L152.945 58H151.27ZM156.039 58L159.367 40.9375H161.043L157.715 58H156.039ZM162.473 47.4414H150.285V45.8125H162.473V47.4414ZM161.594 53.1953H149.395V51.5781H161.594V53.1953ZM174.918 48.1094V50.7109C174.918 52.1094 174.793 53.2891 174.543 54.25C174.293 55.2109 173.934 55.9844 173.465 56.5703C172.996 57.1562 172.43 57.582 171.766 57.8477C171.109 58.1055 170.367 58.2344 169.539 58.2344C168.883 58.2344 168.277 58.1523 167.723 57.9883C167.168 57.8242 166.668 57.5625 166.223 57.2031C165.785 56.8359 165.41 56.3594 165.098 55.7734C164.785 55.1875 164.547 54.4766 164.383 53.6406C164.219 52.8047 164.137 51.8281 164.137 50.7109V48.1094C164.137 46.7109 164.262 45.5391 164.512 44.5938C164.77 43.6484 165.133 42.8906 165.602 42.3203C166.07 41.7422 166.633 41.3281 167.289 41.0781C167.953 40.8281 168.695 40.7031 169.516 40.7031C170.18 40.7031 170.789 40.7852 171.344 40.9492C171.906 41.1055 172.406 41.3594 172.844 41.7109C173.281 42.0547 173.652 42.5156 173.957 43.0938C174.27 43.6641 174.508 44.3633 174.672 45.1914C174.836 46.0195 174.918 46.9922 174.918 48.1094ZM172.738 51.0625V47.7461C172.738 46.9805 172.691 46.3086 172.598 45.7305C172.512 45.1445 172.383 44.6445 172.211 44.2305C172.039 43.8164 171.82 43.4805 171.555 43.2227C171.297 42.9648 170.996 42.7773 170.652 42.6602C170.316 42.5352 169.938 42.4727 169.516 42.4727C169 42.4727 168.543 42.5703 168.145 42.7656C167.746 42.9531 167.41 43.2539 167.137 43.668C166.871 44.082 166.668 44.625 166.527 45.2969C166.387 45.9688 166.316 46.7852 166.316 47.7461V51.0625C166.316 51.8281 166.359 52.5039 166.445 53.0898C166.539 53.6758 166.676 54.1836 166.855 54.6133C167.035 55.0352 167.254 55.3828 167.512 55.6562C167.77 55.9297 168.066 56.1328 168.402 56.2656C168.746 56.3906 169.125 56.4531 169.539 56.4531C170.07 56.4531 170.535 56.3516 170.934 56.1484C171.332 55.9453 171.664 55.6289 171.93 55.1992C172.203 54.7617 172.406 54.2031 172.539 53.5234C172.672 52.8359 172.738 52.0156 172.738 51.0625ZM180.449 49.8789L178.715 49.4336L179.57 40.9375H188.324V42.9414H181.41L180.895 47.582C181.207 47.4023 181.602 47.2344 182.078 47.0781C182.562 46.9219 183.117 46.8438 183.742 46.8438C184.531 46.8438 185.238 46.9805 185.863 47.2539C186.488 47.5195 187.02 47.9023 187.457 48.4023C187.902 48.9023 188.242 49.5039 188.477 50.207C188.711 50.9102 188.828 51.6953 188.828 52.5625C188.828 53.3828 188.715 54.1367 188.488 54.8242C188.27 55.5117 187.938 56.1133 187.492 56.6289C187.047 57.1367 186.484 57.5312 185.805 57.8125C185.133 58.0938 184.34 58.2344 183.426 58.2344C182.738 58.2344 182.086 58.1406 181.469 57.9531C180.859 57.7578 180.312 57.4648 179.828 57.0742C179.352 56.6758 178.961 56.1836 178.656 55.5977C178.359 55.0039 178.172 54.3086 178.094 53.5117H180.156C180.25 54.1523 180.438 54.6914 180.719 55.1289C181 55.5664 181.367 55.8984 181.82 56.125C182.281 56.3438 182.816 56.4531 183.426 56.4531C183.941 56.4531 184.398 56.3633 184.797 56.1836C185.195 56.0039 185.531 55.7461 185.805 55.4102C186.078 55.0742 186.285 54.668 186.426 54.1914C186.574 53.7148 186.648 53.1797 186.648 52.5859C186.648 52.0469 186.574 51.5469 186.426 51.0859C186.277 50.625 186.055 50.2227 185.758 49.8789C185.469 49.5352 185.113 49.2695 184.691 49.082C184.27 48.8867 183.785 48.7891 183.238 48.7891C182.512 48.7891 181.961 48.8867 181.586 49.082C181.219 49.2773 180.84 49.543 180.449 49.8789ZM202.387 56.2188V58H191.219V56.4414L196.809 50.2188C197.496 49.4531 198.027 48.8047 198.402 48.2734C198.785 47.7344 199.051 47.2539 199.199 46.832C199.355 46.4023 199.434 45.9648 199.434 45.5195C199.434 44.957 199.316 44.4492 199.082 43.9961C198.855 43.5352 198.52 43.168 198.074 42.8945C197.629 42.6211 197.09 42.4844 196.457 42.4844C195.699 42.4844 195.066 42.6328 194.559 42.9297C194.059 43.2188 193.684 43.625 193.434 44.1484C193.184 44.6719 193.059 45.2734 193.059 45.9531H190.891C190.891 44.9922 191.102 44.1133 191.523 43.3164C191.945 42.5195 192.57 41.8867 193.398 41.418C194.227 40.9414 195.246 40.7031 196.457 40.7031C197.535 40.7031 198.457 40.8945 199.223 41.2773C199.988 41.6523 200.574 42.1836 200.98 42.8711C201.395 43.5508 201.602 44.3477 201.602 45.2617C201.602 45.7617 201.516 46.2695 201.344 46.7852C201.18 47.293 200.949 47.8008 200.652 48.3086C200.363 48.8164 200.023 49.3164 199.633 49.8086C199.25 50.3008 198.84 50.7852 198.402 51.2617L193.832 56.2188H202.387ZM211.832 40.8438V58H209.664V43.5508L205.293 45.1445V43.1875L211.492 40.8438H211.832ZM221.371 48.4023H222.918C223.676 48.4023 224.301 48.2773 224.793 48.0273C225.293 47.7695 225.664 47.4219 225.906 46.9844C226.156 46.5391 226.281 46.0391 226.281 45.4844C226.281 44.8281 226.172 44.2773 225.953 43.832C225.734 43.3867 225.406 43.0508 224.969 42.8242C224.531 42.5977 223.977 42.4844 223.305 42.4844C222.695 42.4844 222.156 42.6055 221.688 42.8477C221.227 43.082 220.863 43.418 220.598 43.8555C220.34 44.293 220.211 44.8086 220.211 45.4023H218.043C218.043 44.5352 218.262 43.7461 218.699 43.0352C219.137 42.3242 219.75 41.7578 220.539 41.3359C221.336 40.9141 222.258 40.7031 223.305 40.7031C224.336 40.7031 225.238 40.8867 226.012 41.2539C226.785 41.6133 227.387 42.1523 227.816 42.8711C228.246 43.582 228.461 44.4688 228.461 45.5312C228.461 45.9609 228.359 46.4219 228.156 46.9141C227.961 47.3984 227.652 47.8516 227.23 48.2734C226.816 48.6953 226.277 49.043 225.613 49.3164C224.949 49.582 224.152 49.7148 223.223 49.7148H221.371V48.4023ZM221.371 50.1836V48.8828H223.223C224.309 48.8828 225.207 49.0117 225.918 49.2695C226.629 49.5273 227.188 49.8711 227.594 50.3008C228.008 50.7305 228.297 51.2031 228.461 51.7188C228.633 52.2266 228.719 52.7344 228.719 53.2422C228.719 54.0391 228.582 54.7461 228.309 55.3633C228.043 55.9805 227.664 56.5039 227.172 56.9336C226.688 57.3633 226.117 57.6875 225.461 57.9062C224.805 58.125 224.09 58.2344 223.316 58.2344C222.574 58.2344 221.875 58.1289 221.219 57.918C220.57 57.707 219.996 57.4023 219.496 57.0039C218.996 56.5977 218.605 56.1016 218.324 55.5156C218.043 54.9219 217.902 54.2461 217.902 53.4883H220.07C220.07 54.082 220.199 54.6016 220.457 55.0469C220.723 55.4922 221.098 55.8398 221.582 56.0898C222.074 56.332 222.652 56.4531 223.316 56.4531C223.98 56.4531 224.551 56.3398 225.027 56.1133C225.512 55.8789 225.883 55.5273 226.141 55.0586C226.406 54.5898 226.539 54 226.539 53.2891C226.539 52.5781 226.391 51.9961 226.094 51.543C225.797 51.082 225.375 50.7422 224.828 50.5234C224.289 50.2969 223.652 50.1836 222.918 50.1836H221.371ZM238.832 40.8438V58H236.664V43.5508L232.293 45.1445V43.1875L238.492 40.8438H238.832Z" fill="#DFF6FF"/>
<rect x="414" width="117" height="100" fill="#DFF6FF"/>
<path d="M426.27 58L429.586 40.9375H431.273L427.945 58H426.27ZM431.039 58L434.367 40.9375H436.043L432.715 58H431.039ZM437.473 47.4414H425.285V45.8125H437.473V47.4414ZM436.594 53.1953H424.395V51.5781H436.594V53.1953ZM444.387 58H440.824L440.848 56.1602H444.387C445.605 56.1602 446.621 55.9062 447.434 55.3984C448.246 54.8828 448.855 54.1641 449.262 53.2422C449.676 52.3125 449.883 51.2266 449.883 49.9844V48.9414C449.883 47.9648 449.766 47.0977 449.531 46.3398C449.297 45.5742 448.953 44.9297 448.5 44.4062C448.047 43.875 447.492 43.4727 446.836 43.1992C446.188 42.9258 445.441 42.7891 444.598 42.7891H440.754V40.9375H444.598C445.715 40.9375 446.734 41.125 447.656 41.5C448.578 41.8672 449.371 42.4023 450.035 43.1055C450.707 43.8008 451.223 44.6445 451.582 45.6367C451.941 46.6211 452.121 47.7305 452.121 48.9648V49.9844C452.121 51.2188 451.941 52.332 451.582 53.3242C451.223 54.3086 450.703 55.1484 450.023 55.8438C449.352 56.5391 448.539 57.0742 447.586 57.4492C446.641 57.8164 445.574 58 444.387 58ZM442.031 40.9375V58H439.77V40.9375H442.031ZM457.781 40.9375V58H455.52V40.9375H457.781ZM464.93 48.6133V50.4648H457.289V48.6133H464.93ZM466.09 40.9375V42.7891H457.289V40.9375H466.09ZM471.047 40.9375V58H468.785V40.9375H471.047ZM478.195 48.6133V50.4648H470.555V48.6133H478.195ZM479.355 40.9375V42.7891H470.555V40.9375H479.355ZM489.809 40.9141H489.996V42.7539H489.809C488.66 42.7539 487.699 42.9414 486.926 43.3164C486.152 43.6836 485.539 44.1797 485.086 44.8047C484.633 45.4219 484.305 46.1172 484.102 46.8906C483.906 47.6641 483.809 48.4492 483.809 49.2461V51.7539C483.809 52.5117 483.898 53.1836 484.078 53.7695C484.258 54.3477 484.504 54.8359 484.816 55.2344C485.129 55.6328 485.48 55.9336 485.871 56.1367C486.27 56.3398 486.684 56.4414 487.113 56.4414C487.613 56.4414 488.059 56.3477 488.449 56.1602C488.84 55.9648 489.168 55.6953 489.434 55.3516C489.707 55 489.914 54.5859 490.055 54.1094C490.195 53.6328 490.266 53.1094 490.266 52.5391C490.266 52.0312 490.203 51.543 490.078 51.0742C489.953 50.5977 489.762 50.1758 489.504 49.8086C489.246 49.4336 488.922 49.1406 488.531 48.9297C488.148 48.7109 487.691 48.6016 487.16 48.6016C486.559 48.6016 485.996 48.75 485.473 49.0469C484.957 49.3359 484.531 49.7188 484.195 50.1953C483.867 50.6641 483.68 51.1758 483.633 51.7305L482.484 51.7188C482.594 50.8438 482.797 50.0977 483.094 49.4805C483.398 48.8555 483.773 48.3477 484.219 47.957C484.672 47.5586 485.176 47.2695 485.73 47.0898C486.293 46.9023 486.887 46.8086 487.512 46.8086C488.363 46.8086 489.098 46.9688 489.715 47.2891C490.332 47.6094 490.84 48.0391 491.238 48.5781C491.637 49.1094 491.93 49.7109 492.117 50.3828C492.312 51.0469 492.41 51.7305 492.41 52.4336C492.41 53.2383 492.297 53.9922 492.07 54.6953C491.844 55.3984 491.504 56.0156 491.051 56.5469C490.605 57.0781 490.055 57.4922 489.398 57.7891C488.742 58.0859 487.98 58.2344 487.113 58.2344C486.191 58.2344 485.387 58.0469 484.699 57.6719C484.012 57.2891 483.441 56.7812 482.988 56.1484C482.535 55.5156 482.195 54.8125 481.969 54.0391C481.742 53.2656 481.629 52.4805 481.629 51.6836V50.6641C481.629 49.4609 481.75 48.2812 481.992 47.125C482.234 45.9688 482.652 44.9219 483.246 43.9844C483.848 43.0469 484.68 42.3008 485.742 41.7461C486.805 41.1914 488.16 40.9141 489.809 40.9141ZM497.812 40.9375V58H495.551V40.9375H497.812ZM504.961 48.6133V50.4648H497.32V48.6133H504.961ZM506.121 40.9375V42.7891H497.32V40.9375H506.121ZM511.078 40.9375V58H508.816V40.9375H511.078ZM518.227 48.6133V50.4648H510.586V48.6133H518.227ZM519.387 40.9375V42.7891H510.586V40.9375H519.387Z" fill="#041A27"/>
<rect x="276" width="117" height="100" fill="#8CD1FF"/>
<path d="M287.27 58L290.586 40.9375H292.273L288.945 58H287.27ZM292.039 58L295.367 40.9375H297.043L293.715 58H292.039ZM298.473 47.4414H286.285V45.8125H298.473V47.4414ZM297.594 53.1953H285.395V51.5781H297.594V53.1953ZM310.965 53.3828C310.965 54.4219 310.723 55.3047 310.238 56.0312C309.762 56.75 309.113 57.2969 308.293 57.6719C307.48 58.0469 306.562 58.2344 305.539 58.2344C304.516 58.2344 303.594 58.0469 302.773 57.6719C301.953 57.2969 301.305 56.75 300.828 56.0312C300.352 55.3047 300.113 54.4219 300.113 53.3828C300.113 52.7031 300.242 52.082 300.5 51.5195C300.766 50.9492 301.137 50.4531 301.613 50.0312C302.098 49.6094 302.668 49.2852 303.324 49.0586C303.988 48.8242 304.719 48.707 305.516 48.707C306.562 48.707 307.496 48.9102 308.316 49.3164C309.137 49.7148 309.781 50.2656 310.25 50.9688C310.727 51.6719 310.965 52.4766 310.965 53.3828ZM308.785 53.3359C308.785 52.7031 308.648 52.1445 308.375 51.6602C308.102 51.168 307.719 50.7852 307.227 50.5117C306.734 50.2383 306.164 50.1016 305.516 50.1016C304.852 50.1016 304.277 50.2383 303.793 50.5117C303.316 50.7852 302.945 51.168 302.68 51.6602C302.414 52.1445 302.281 52.7031 302.281 53.3359C302.281 53.9922 302.41 54.5547 302.668 55.0234C302.934 55.4844 303.309 55.8398 303.793 56.0898C304.285 56.332 304.867 56.4531 305.539 56.4531C306.211 56.4531 306.789 56.332 307.273 56.0898C307.758 55.8398 308.129 55.4844 308.387 55.0234C308.652 54.5547 308.785 53.9922 308.785 53.3359ZM310.566 45.3789C310.566 46.207 310.348 46.9531 309.91 47.6172C309.473 48.2812 308.875 48.8047 308.117 49.1875C307.359 49.5703 306.5 49.7617 305.539 49.7617C304.562 49.7617 303.691 49.5703 302.926 49.1875C302.168 48.8047 301.574 48.2812 301.145 47.6172C300.715 46.9531 300.5 46.207 300.5 45.3789C300.5 44.3867 300.715 43.543 301.145 42.8477C301.582 42.1523 302.18 41.6211 302.938 41.2539C303.695 40.8867 304.559 40.7031 305.527 40.7031C306.504 40.7031 307.371 40.8867 308.129 41.2539C308.887 41.6211 309.48 42.1523 309.91 42.8477C310.348 43.543 310.566 44.3867 310.566 45.3789ZM308.398 45.4141C308.398 44.8438 308.277 44.3398 308.035 43.9023C307.793 43.4648 307.457 43.1211 307.027 42.8711C306.598 42.6133 306.098 42.4844 305.527 42.4844C304.957 42.4844 304.457 42.6055 304.027 42.8477C303.605 43.082 303.273 43.418 303.031 43.8555C302.797 44.293 302.68 44.8125 302.68 45.4141C302.68 46 302.797 46.5117 303.031 46.9492C303.273 47.3867 303.609 47.7266 304.039 47.9688C304.469 48.2109 304.969 48.332 305.539 48.332C306.109 48.332 306.605 48.2109 307.027 47.9688C307.457 47.7266 307.793 47.3867 308.035 46.9492C308.277 46.5117 308.398 46 308.398 45.4141ZM324.57 52.5742H326.82C326.703 53.6523 326.395 54.6172 325.895 55.4688C325.395 56.3203 324.688 56.9961 323.773 57.4961C322.859 57.9883 321.719 58.2344 320.352 58.2344C319.352 58.2344 318.441 58.0469 317.621 57.6719C316.809 57.2969 316.109 56.7656 315.523 56.0781C314.938 55.3828 314.484 54.5508 314.164 53.582C313.852 52.6055 313.695 51.5195 313.695 50.3242V48.625C313.695 47.4297 313.852 46.3477 314.164 45.3789C314.484 44.4023 314.941 43.5664 315.535 42.8711C316.137 42.1758 316.859 41.6406 317.703 41.2656C318.547 40.8906 319.496 40.7031 320.551 40.7031C321.84 40.7031 322.93 40.9453 323.82 41.4297C324.711 41.9141 325.402 42.5859 325.895 43.4453C326.395 44.2969 326.703 45.2852 326.82 46.4102H324.57C324.461 45.6133 324.258 44.9297 323.961 44.3594C323.664 43.7812 323.242 43.3359 322.695 43.0234C322.148 42.7109 321.434 42.5547 320.551 42.5547C319.793 42.5547 319.125 42.6992 318.547 42.9883C317.977 43.2773 317.496 43.6875 317.105 44.2188C316.723 44.75 316.434 45.3867 316.238 46.1289C316.043 46.8711 315.945 47.6953 315.945 48.6016V50.3242C315.945 51.1602 316.031 51.9453 316.203 52.6797C316.383 53.4141 316.652 54.0586 317.012 54.6133C317.371 55.168 317.828 55.6055 318.383 55.9258C318.938 56.2383 319.594 56.3945 320.352 56.3945C321.312 56.3945 322.078 56.2422 322.648 55.9375C323.219 55.6328 323.648 55.1953 323.938 54.625C324.234 54.0547 324.445 53.3711 324.57 52.5742ZM334.52 58H330.957L330.98 56.1602H334.52C335.738 56.1602 336.754 55.9062 337.566 55.3984C338.379 54.8828 338.988 54.1641 339.395 53.2422C339.809 52.3125 340.016 51.2266 340.016 49.9844V48.9414C340.016 47.9648 339.898 47.0977 339.664 46.3398C339.43 45.5742 339.086 44.9297 338.633 44.4062C338.18 43.875 337.625 43.4727 336.969 43.1992C336.32 42.9258 335.574 42.7891 334.73 42.7891H330.887V40.9375H334.73C335.848 40.9375 336.867 41.125 337.789 41.5C338.711 41.8672 339.504 42.4023 340.168 43.1055C340.84 43.8008 341.355 44.6445 341.715 45.6367C342.074 46.6211 342.254 47.7305 342.254 48.9648V49.9844C342.254 51.2188 342.074 52.332 341.715 53.3242C341.355 54.3086 340.836 55.1484 340.156 55.8438C339.484 56.5391 338.672 57.0742 337.719 57.4492C336.773 57.8164 335.707 58 334.52 58ZM332.164 40.9375V58H329.902V40.9375H332.164ZM352.215 40.8438V58H350.047V43.5508L345.676 45.1445V43.1875L351.875 40.8438H352.215ZM361.414 40.9375V58H359.152V40.9375H361.414ZM368.562 48.6133V50.4648H360.922V48.6133H368.562ZM369.723 40.9375V42.7891H360.922V40.9375H369.723ZM374.68 40.9375V58H372.418V40.9375H374.68ZM381.828 48.6133V50.4648H374.188V48.6133H381.828ZM382.988 40.9375V42.7891H374.188V40.9375H382.988Z" fill="#DFF6FF"/>
<rect width="117" height="100" fill="#041A27"/>
<path d="M12.2695 58L15.5859 40.9375H17.2734L13.9453 58H12.2695ZM17.0391 58L20.3672 40.9375H22.043L18.7148 58H17.0391ZM23.4727 47.4414H11.2852V45.8125H23.4727V47.4414ZM22.5938 53.1953H10.3945V51.5781H22.5938V53.1953ZM35.918 48.1094V50.7109C35.918 52.1094 35.793 53.2891 35.543 54.25C35.293 55.2109 34.9336 55.9844 34.4648 56.5703C33.9961 57.1562 33.4297 57.582 32.7656 57.8477C32.1094 58.1055 31.3672 58.2344 30.5391 58.2344C29.8828 58.2344 29.2773 58.1523 28.7227 57.9883C28.168 57.8242 27.668 57.5625 27.2227 57.2031C26.7852 56.8359 26.4102 56.3594 26.0977 55.7734C25.7852 55.1875 25.5469 54.4766 25.3828 53.6406C25.2188 52.8047 25.1367 51.8281 25.1367 50.7109V48.1094C25.1367 46.7109 25.2617 45.5391 25.5117 44.5938C25.7695 43.6484 26.1328 42.8906 26.6016 42.3203C27.0703 41.7422 27.6328 41.3281 28.2891 41.0781C28.9531 40.8281 29.6953 40.7031 30.5156 40.7031C31.1797 40.7031 31.7891 40.7852 32.3438 40.9492C32.9062 41.1055 33.4062 41.3594 33.8438 41.7109C34.2812 42.0547 34.6523 42.5156 34.957 43.0938C35.2695 43.6641 35.5078 44.3633 35.6719 45.1914C35.8359 46.0195 35.918 46.9922 35.918 48.1094ZM33.7383 51.0625V47.7461C33.7383 46.9805 33.6914 46.3086 33.5977 45.7305C33.5117 45.1445 33.3828 44.6445 33.2109 44.2305C33.0391 43.8164 32.8203 43.4805 32.5547 43.2227C32.2969 42.9648 31.9961 42.7773 31.6523 42.6602C31.3164 42.5352 30.9375 42.4727 30.5156 42.4727C30 42.4727 29.543 42.5703 29.1445 42.7656C28.7461 42.9531 28.4102 43.2539 28.1367 43.668C27.8711 44.082 27.668 44.625 27.5273 45.2969C27.3867 45.9688 27.3164 46.7852 27.3164 47.7461V51.0625C27.3164 51.8281 27.3594 52.5039 27.4453 53.0898C27.5391 53.6758 27.6758 54.1836 27.8555 54.6133C28.0352 55.0352 28.2539 55.3828 28.5117 55.6562C28.7695 55.9297 29.0664 56.1328 29.4023 56.2656C29.7461 56.3906 30.125 56.4531 30.5391 56.4531C31.0703 56.4531 31.5352 56.3516 31.9336 56.1484C32.332 55.9453 32.6641 55.6289 32.9297 55.1992C33.2031 54.7617 33.4062 54.2031 33.5391 53.5234C33.6719 52.8359 33.7383 52.0156 33.7383 51.0625ZM50.2383 52.2578V54.0391H37.9102V52.7617L45.5508 40.9375H47.3203L45.4219 44.3594L40.3711 52.2578H50.2383ZM47.8594 40.9375V58H45.6914V40.9375H47.8594ZM59.332 40.8438V58H57.1641V43.5508L52.793 45.1445V43.1875L58.9922 40.8438H59.332ZM72.5859 42.4492L66.9375 58H64.6289L71.1328 40.9375H72.6211L72.5859 42.4492ZM77.3203 58L71.6602 42.4492L71.625 40.9375H73.1133L79.6406 58H77.3203ZM77.0273 51.6836V53.5352H67.4414V51.6836H77.0273ZM92.543 56.2188V58H81.375V56.4414L86.9648 50.2188C87.6523 49.4531 88.1836 48.8047 88.5586 48.2734C88.9414 47.7344 89.207 47.2539 89.3555 46.832C89.5117 46.4023 89.5898 45.9648 89.5898 45.5195C89.5898 44.957 89.4727 44.4492 89.2383 43.9961C89.0117 43.5352 88.6758 43.168 88.2305 42.8945C87.7852 42.6211 87.2461 42.4844 86.6133 42.4844C85.8555 42.4844 85.2227 42.6328 84.7148 42.9297C84.2148 43.2188 83.8398 43.625 83.5898 44.1484C83.3398 44.6719 83.2148 45.2734 83.2148 45.9531H81.0469C81.0469 44.9922 81.2578 44.1133 81.6797 43.3164C82.1016 42.5195 82.7266 41.8867 83.5547 41.418C84.3828 40.9414 85.4023 40.7031 86.6133 40.7031C87.6914 40.7031 88.6133 40.8945 89.3789 41.2773C90.1445 41.6523 90.7305 42.1836 91.1367 42.8711C91.5508 43.5508 91.7578 44.3477 91.7578 45.2617C91.7578 45.7617 91.6719 46.2695 91.5 46.7852C91.3359 47.293 91.1055 47.8008 90.8086 48.3086C90.5195 48.8164 90.1797 49.3164 89.7891 49.8086C89.4062 50.3008 88.9961 50.7852 88.5586 51.2617L83.9883 56.2188H92.543ZM105.891 40.9375V42.1562L98.8242 58H96.5391L103.594 42.7188H94.3594V40.9375H105.891Z" fill="#DFF6FF"/>
</svg>
