<svg xmlns="http://www.w3.org/2000/svg" viewBox="0 0 48 48"><path fill="#fff" d="M44 29.8c-.1-.8-.9-1.8-2.4-1.8l-1 .1-1.8.3c4-7 6.8-16.9 4.1-20.3A13.4 13.4 0 0 0 32.2 3H32c-1 0-2 .1-2.9.3l-3.6.8L24 4h-.2c-1.6 0-3 .3-4.3 1l-1.3-.5A19.6 19.6 0 0 0 11 3C8.4 3 6.2 4 4.7 5.8 2.7 7.9 1.8 11 2 15 2 15.3 4.5 36 11.4 36a4 4 0 0 0 2.7-1c.6.4 1.4.7 2.1.8l2.4.2a8 8 0 0 0 3.5-.7v3.5c0 1.5.3 2.8.7 3.8 1 2.8 2.8 4.4 5 4.4h.3a7.2 7.2 0 0 0 5-2.8 9 9 0 0 0 1.9-5V35h1a12 12 0 0 0 4.6-1c1.2-.5 4-2 3.5-4.2z"/><path fill="#0277bd" d="M33 34v-1c.2-2.7 1-3.7 1.7-4.3l-.3-.5-1.2-1.7-.1-.1c0-.2-.3-.5-.5-.8-1.1-2.2-3.6-6.6-2-9.4.8-1.3 2.2-2 4.2-2.2-.8-2.3-3.9-7.9-10.8-8-6-.1-8 5.4-8.7 8.7.9-.4 2-.6 2.8-.6 2.4 0 4 1.2 4.4 3.3.3 1.6.5 3 .5 4.2 0 2.7-.6 4.1-1 5.4l-.2.4a21.6 21.6 0 0 1-.7 1.7l1.1.4h.2l.1.1A3 3 0 0 1 24 32v6.8c.1 1.3.3 2.4.6 3.2.4 1 1.5 3.2 3.4 3.1 1.4 0 2.7-1 3.6-2a7 7 0 0 0 1.4-4v-5z"/><path fill="#0277bd" d="M15.1 29a7.4 7.4 0 0 1-2-6.1 23.3 23.3 0 0 0-.1-6c.1-3 1.3-7.7 4.5-10.6C15.9 5.7 13.4 5 11 5c-3.7.1-7.4 2.7-7 10 .1 2.7 3.2 19.1 7.4 19 .6 0 1.3-.4 2-1.2l2.6-3-.9-.9zm22-14.3-.1.4c0 1 0 1.9-.2 2.7l-.1 2 .1 2c.3 1.5.5 3.3-.7 5.4l.5.8c4.7-7.5 6.5-16.4 4.7-18.6a11.4 11.4 0 0 0-11.8-4.1C34.6 7.8 37 13 37 14.7zM41 30.1c-2.7.5-4 .2-4.6-.2l-.3.2c-.3.3-1 .6-1 2.8h.2l.4.1c1.3 0 3-.3 4-.8 2.3-1 3.5-2.6 1.3-2.1zm-19 2a1 1 0 0 0-.5-.7c-.4-.2-.8-.4-1.5-.4h-.5c-.5.4-1.2.7-2.9 1-3 .8-1.2 1.7 0 1.8 1 .3 3.7.6 5.4-.8V32z"/><path fill="#0277bd" d="M20.7 18.5c-.3.3-.8.6-1.3.5-.8-.1-1.4-1.1-1.4-1.5 0-.4.8-.6 1.6-.5.3 0 .5.2.7.3-.3-.7-.9-1.1-1.7-1.2-1.6-.2-3.3.6-3.6 1v.5c.1 1.1.3 3.3 0 5.5-.2 1.5.4 3.2 1.6 4.4.7.8 1.6 1.3 2.5 1.5 0-.5.3-1 .5-1.5l.3-.8.2-.4c.4-1.2.9-2.4.9-4.7l-.3-3.1zM34.8 22a13 13 0 0 1-.1-2.3l.1-2.1.2-1.6c-1.3.1-2.2.5-2.6 1.1h.6c.9-.2 1.5 0 1.6.6 0 .3-.2.7-.4.8a1.8 1.8 0 0 1-1.1.5c-.4 0-.7-.1-1-.3a16.7 16.7 0 0 0 2.7 6.6c.4-1.1.2-2.2 0-3.3z"/></svg>