<svg xmlns="http://www.w3.org/2000/svg" viewBox="0 0 48 48"><path fill="#ffd600" d="M6 42V6h36v36H6z"/><path fill="#000001" d="M29.5 33c.7 1 1.5 2.1 3 2.1 1.4 0 2.1-.6 2.1-1.5 0-1.1-.7-1.5-2.2-2.2l-.8-.3c-2.3-1-3.9-2.2-3.9-4.9 0-2.4 1.9-4.2 4.8-4.2 2 0 3.5.7 4.6 2.6l-2.6 1.6c-.5-1-1.1-1.4-2-1.4-1 0-1.6.6-1.6 1.4 0 1 .6 1.3 2 2l.8.3c2.8 1.1 4.3 2.3 4.3 5 0 3-2.3 4.5-5.4 4.5-3 0-4.7-1.5-5.6-3.4l2.5-1.7zM18 33c.5 1 1.2 1.6 2.3 1.6 1 0 1.7-.4 1.7-2V22h3.3v11.1c0 3.4-2 4.9-4.8 4.9a5.8 5.8 0 0 1-5.2-3.4L18 33z"/></svg>