<svg xmlns="http://www.w3.org/2000/svg" viewBox="0 0 80 80"><path fill="#8bb7f0" d="M46.5 40a6.5 6.5 0 1 1-13 0 6.5 6.5 0 0 1 13 0z"/><path fill="#4e7ab5" d="M40 47a7 7 0 1 1 0-14 7 7 0 0 1 0 14zm0-13a6 6 0 1 0 0 12 6 6 0 0 0 0-12z"/><path fill="#8bb7f0" d="M24.5 75.5c-1.7 0-3.3-.4-4.7-1.2a10.2 10.2 0 0 1-4.6-6.6c-1-3.6-.9-8.4.3-13.9C6 50.6.5 45.5.5 40s5.5-10.6 15-13.8a30.6 30.6 0 0 1-.3-14c.8-3 2.4-5.2 4.6-6.5 1.4-.8 3-1.2 4.7-1.2 4.4 0 9.9 2.7 15.5 7.7 5.6-5 11.1-7.7 15.5-7.7 1.7 0 3.3.4 4.7 1.2 2.2 1.3 3.8 3.5 4.6 6.6 1 3.6.9 8.4-.3 13.9 9.5 3.2 15 8.3 15 13.8s-5.5 10.6-15 13.8c1.2 5.5 1.3 10.3.3 14-.8 3-2.4 5.2-4.6 6.5-1.4.8-3 1.2-4.7 1.2-4.4 0-9.9-2.7-15.5-7.7-5.6 5-11.1 7.7-15.5 7.7zM19.3 55c-1 4.7-1 8.8-.3 11.7.6 2 1.5 3.4 2.8 4.2.8.4 1.7.6 2.7.6 3.4 0 7.8-2.3 12.6-6.4a76 76 0 0 1-7-8.1c-3.8-.4-7.4-1.1-10.8-2zM43 65c4.8 4.2 9.2 6.5 12.6 6.5 1 0 2-.2 2.7-.6 1.3-.8 2.2-2.2 2.8-4.2.8-3 .7-7-.3-11.7-3.4.9-7 1.6-10.9 2-2.2 3-4.5 5.7-6.9 8zm-7.3-7.6c1.4 1.8 2.9 3.4 4.4 5 1.5-1.6 3-3.2 4.4-5a93.4 93.4 0 0 1-8.8 0zm-3.3-4.2a90.3 90.3 0 0 0 15.3 0A89 89 0 0 0 55.4 40a86.6 86.6 0 0 0-7.8-13.2 90.4 90.4 0 0 0-15.2 0A88.3 88.3 0 0 0 24.6 40a87 87 0 0 0 7.7 13.2zm25.2-8.4a91.6 91.6 0 0 1-4.6 7.7 65 65 0 0 0 6.8-1.4c-.6-2-1.3-4.1-2.2-6.3zM20.3 51c2.1.6 4.4 1 6.8 1.4a92.6 92.6 0 0 1-4.6-7.7c-.9 2.2-1.6 4.3-2.2 6.3zM59.8 40c1.5 3.4 2.8 6.7 3.7 10 7.4-2.6 12-6.4 12-10s-4.6-7.4-12-10a75 75 0 0 1-3.7 10zM16.5 30c-7.4 2.6-12 6.4-12 10 0 3.6 4.6 7.4 12 10 1-3.3 2.2-6.6 3.7-10a75.2 75.2 0 0 1-3.7-10zm3.8-1.1c.6 2 1.3 4.1 2.2 6.3a92.5 92.5 0 0 1 4.6-7.7c-2.4.3-4.7.8-6.8 1.4zm32.6-1.4a92 92 0 0 1 4.6 7.7C58.4 33 59 31 59.7 29c-2.1-.6-4.4-1-6.8-1.4zm-28.4-19c-1 0-2 .2-2.7.6-1.3.8-2.2 2.2-2.8 4.2-.8 3-.7 7 .3 11.7 3.4-.9 7-1.6 10.9-2 2.2-3 4.5-5.7 6.9-8-4.8-4.2-9.2-6.5-12.6-6.5zM49.8 23c3.9.4 7.5 1.1 10.9 2 1-4.7 1-8.8.3-11.7-.6-2-1.5-3.4-2.8-4.2-.8-.4-1.7-.6-2.7-.6-3.4 0-7.8 2.3-12.6 6.4 2.4 2.4 4.7 5.2 7 8.1zm-9.8-.5 4.4.1a70 70 0 0 0-4.4-5 70 70 0 0 0-4.4 5l4.4-.1z"/><path fill="#4e7ab5" d="M24.5 5c4.5 0 10 3 15.5 7.9C45.5 7.9 51 5 55.5 5c1.7 0 3.1.4 4.4 1.1a9.7 9.7 0 0 1 4.5 6.3c1 4 .8 8.7-.5 14C73.1 29.7 79 34.5 79 40s-5.9 10.4-15 13.5c1.3 5.8 1.5 10.7.4 14-.8 3-2.3 5.2-4.5 6.4a7.7 7.7 0 0 1-4 1.1h-.5c-4.5 0-9.9-3-15.4-7.9-5.5 5-11 7.9-15.5 7.9-1.7 0-3.1-.4-4.4-1.1a9.8 9.8 0 0 1-4.5-6.3c-1.2-3.7-1-8.6.5-14C6.9 50.3 1 45.5 1 40s5.9-10.4 15-13.5c-.6-3-1-6-1-8.5 0-2 .2-4 .6-5.6.8-3 2.3-5 4.5-6.3A8.8 8.8 0 0 1 24.5 5M19 25.6c3.4-1 7.3-1.7 11.4-2.1 2.4-3.2 5-6.1 7.4-8.6C33 10.6 28.2 8 24.5 8c-1.1 0-2.1.2-3 .7-1.4.8-2.4 2.3-3 4.5-.8 3.2-.6 7.5.5 12.4m42 0c1.1-4.9 1.3-9.2.5-12.4-.6-2.2-1.6-3.7-3-4.5-.9-.5-1.9-.7-3-.7-3.7 0-8.5 2.6-13.3 7 2.5 2.4 5 5.3 7.4 8.5 4.1.4 8 1.2 11.4 2.1m-26.5-2.4a91.6 91.6 0 0 1 11 0A70.4 70.4 0 0 0 40 17c-1.9 1.8-3.7 3.9-5.5 6.2M40 54c2.8 0 5.4-.1 8-.3A88.4 88.4 0 0 0 56 40a87 87 0 0 0-8-13.7 89.6 89.6 0 0 0-16 0A88.1 88.1 0 0 0 24 40a87 87 0 0 0 8 13.7c2.6.2 5.2.3 8 .3m17.5-17.6c1.2-2.7 2.1-5.4 2.8-7.9-2.5-.7-5.4-1.3-8.4-1.7a92 92 0 0 1 5.6 9.6m-35 0a92.6 92.6 0 0 1 5.6-9.6c-3 .4-5.9 1-8.4 1.7.7 2.5 1.6 5.2 2.7 8m40.8 14.1C71.2 48 76 44 76 40s-4.7-7.9-12.8-10.6c-1 3.4-2.3 7-4 10.6 1.7 3.6 3 7.2 4 10.6m-46.4 0c1-3.4 2.3-7 4-10.6-1.7-3.6-3-7.2-4-10.6C8.8 32 4 36 4 40c0 3.9 4.7 7.9 12.8 10.6m35 2.6c3.1-.4 6-1 8.5-1.7a70 70 0 0 0-2.8-8 92.6 92.6 0 0 1-5.6 9.7m-23.8 0a93 93 0 0 1-5.7-9.6c-1 2.7-2 5.4-2.7 7.9 2.5.7 5.4 1.3 8.4 1.7M24.5 72c3.7 0 8.5-2.6 13.3-7-2.5-2.4-5-5.3-7.4-8.5-4.1-.4-8-1.2-11.4-2.1-1.1 4.9-1.3 9.2-.5 12.4.6 2.2 1.6 3.7 3 4.5.9.5 1.9.7 3 .7m31 0c1.1 0 2.1-.2 3-.7 1.4-.8 2.4-2.3 3-4.5.8-3.2.6-7.5-.5-12.4-3.4 1-7.3 1.7-11.4 2.1a75.2 75.2 0 0 1-7.4 8.6C47 69.4 51.8 72 55.5 72M40 63c1.9-1.8 3.7-3.9 5.5-6.2-1.8.1-3.5.4-5.4.4-1.9 0-3.8-.3-5.6-.4 1.8 2.3 3.6 4.4 5.5 6.2M24.1 4c-1.8 0-3 .4-4.5 1.2-2.4 1.4-4 3.7-5 7-.9 3.5-.8 8.3.3 13.6C5.4 29.2 0 34.3 0 40c0 5.7 5.4 10.8 15 14.2-1.2 5.3-1.3 10-.3 13.6.8 3.3 2.5 5.6 4.9 7a10 10 0 0 0 5 1.1c4.5 0 9.7-2.5 15.4-7.4 5.7 4.9 11 7.5 15.5 7.5 1.8 0 3.5-.4 5-1.2 2.3-1.4 4-3.7 4.8-7 1-3.5.9-8.3-.2-13.6C74.6 50.8 80 45.7 80 40s-5.4-10.8-15-14.2c1.2-5.3 1.3-10 .3-13.7-.8-3.2-2.5-5.5-4.9-6.9-1.4-.8-3-1.2-4.9-1.2C51 4 45.7 6.6 40 11.5c-5.7-4.9-11-7.4-15.6-7.4h-.3zm-4.4 20.4c-.4-2.3-.8-4.5-.8-6.4 0-1.8.3-3.3.6-4.6.5-1.8 1.4-3.2 2.6-3.8.6-.4 1.5-.7 2.4-.7 3.2 0 7.3 2.2 11.9 6a76.8 76.8 0 0 0-6.5 7.6c-3.6.4-7 1-10.2 1.9zm24-9.4c4.5-3.9 8.6-6 11.8-6 1 0 1.8.2 2.4.6 1.2.7 2 2 2.6 3.8a22 22 0 0 1-.2 11c-3.2-.8-6.6-1.5-10.2-1.8a77 77 0 0 0-6.5-7.6zm-7 7 3.3-3.6 3.3 3.7a93.3 93.3 0 0 0-6.6 0zm-4 5.3a89.6 89.6 0 0 1 14.7 0A87.8 87.8 0 0 1 54.9 40a86.6 86.6 0 0 1-7.5 12.7c-2.4.2-5 .5-7.4.5-2.5 0-5-.3-7.4-.5A87.4 87.4 0 0 1 25.1 40a86.2 86.2 0 0 1 7.5-12.7zM57.3 34a94 94 0 0 0-3.4-5.9l5 1.1c-.4 1.6-1 3.2-1.6 4.8zM21 29.2a64 64 0 0 1 5.1-1 91.8 91.8 0 0 0-3.4 5.8 67 67 0 0 1-1.7-4.8zM60.4 40a76 76 0 0 0 3.5-9.3c6.9 2.5 11.1 6 11.1 9.3s-4.2 6.8-11.1 9.3c-1-3-2.1-6.1-3.5-9.3zM16 49.3C9.2 46.8 5 43.3 5 40s4.2-6.8 11.1-9.3c1 3 2.1 6.1 3.5 9.3a76.2 76.2 0 0 0-3.5 9.3zM54 52a93 93 0 0 0 3.4-6l1.7 4.9a65 65 0 0 1-5.1 1zm-33-1.1c.4-1.6 1-3.2 1.6-4.8a92 92 0 0 0 3.4 5.9l-5-1.1zM24.4 71c-1 0-1.8-.2-2.4-.6-1.2-.7-2-2-2.6-3.8-.8-2.9-.7-6.6.2-11A74 74 0 0 0 30 57.4a77 77 0 0 0 6.5 7.6c-4.5 3.9-8.7 6-12 6zM50 57.5c3.6-.4 7-1 10.2-1.9 1 4.8 1.2 8.5.2 11-.5 1.8-1.4 3.1-2.6 3.8-.6.4-1.4.6-2.4.6v1-1c-3.2 0-7.3-2.1-11.9-6 2.3-2.2 4.4-4.8 6.5-7.5zM40 61.6a68.2 68.2 0 0 1-3.3-3.7 93.5 93.5 0 0 0 6.6 0c-1 1.3-2.2 2.6-3.3 3.7z"/></svg>