<svg xmlns="http://www.w3.org/2000/svg" viewBox="0 0 48 48"><linearGradient id="a" x1="21.9" x2="25.7" y1="8.2" y2="36.6" gradientUnits="userSpaceOnUse"><stop offset="0" stop-color="#00c1e0"/><stop offset="1" stop-color="#009bb8"/></linearGradient><path fill="url(#a)" d="M24 9.6c-5.6 0-9.3 2.4-11.3 7.3-.2.5.4 1 .8.6a7 7 0 0 1 6.9-1.9c1.8.5 3.1 1.8 4.6 3.2 2.3 2.4 5 5.2 11 5.2 5.6 0 9.3-2.4 11.3-7.3.2-.5-.4-1-.8-.6a7 7 0 0 1-6.9 1.9c-1.8-.5-3.1-1.8-4.6-3.2-2.3-2.4-5-5.2-11-5.2zM12 24C6.4 24 2.7 26.4.7 31.3c-.2.5.4 1 .8.6A7 7 0 0 1 8.4 30c1.8.5 3.1 1.8 4.6 3.2 2.3 2.4 5 5.2 11 5.2 5.6 0 9.3-2.4 11.3-7.3.2-.5-.4-1-.8-.6a7 7 0 0 1-6.9 1.9c-1.8-.5-3.1-1.8-4.6-3.2-2.3-2.4-5-5.2-11-5.2z"/></svg>