<svg xmlns="http://www.w3.org/2000/svg" viewBox="0 0 256 230"><path fill="#00435b" d="m158 142.5-5 8.5a8.3 8.3 0 0 1-7.1 4.2h-37.6a8.3 8.3 0 0 1-7.2-4.2l-5-8.5zm13.7-23.9-8.6 15H91l-8.7-15zm-8.3-23.3 8.3 14.5H82.4l8.4-14.5zm-17.5-22a8.3 8.3 0 0 1 7.2 4l5.2 9.1H95.9l5.2-9a8.3 8.3 0 0 1 7.2-4.2z"/><path fill="#002b3b" d="M53.5 69.3c-4.1-20.3-5-35.8-2.3-47a30.2 30.2 0 0 1 9-16.1A25.5 25.5 0 0 1 77.4 0c11 0 22.6 5 35 14.6 5 3.9 10.2 8.6 15.7 14l1.4-1.5C145 13.4 158 4.9 169.1 1.6c6.6-2 12.7-2.2 18.4-.3 6 2 10.7 6.2 14 12 5.5 9.5 7 22 5 37.6-1 6.3-2.4 13.2-4.4 20.7.8 0 1.5.2 2.3.5 19.5 6.4 33.3 13.4 41.7 21.4 5 4.7 8.2 10 9.4 15.8 1.3 6.1 0 12.3-3.3 18.1-5.5 9.5-15.6 17-30 23-5.8 2.4-12.4 4.6-19.7 6.6l.8 2.3c4.1 20.3 5 35.7 2.3 47a30.2 30.2 0 0 1-9 16.1 25.5 25.5 0 0 1-17.3 6.2c-11 0-22.6-5-35-14.6a160 160 0 0 1-15.9-14.2 11.7 11.7 0 0 1-2 2.4C111 216 98 224.4 86.9 227.7c-6.6 2-12.7 2.2-18.4.3-6-2-10.7-6.2-14-12-5.5-9.5-7-22-5-37.6 1-6.5 2.5-13.7 4.6-21.5a11.7 11.7 0 0 1-2.5-.5C32.1 149.9 18.3 143 9.9 135c-5-4.7-8.2-10-9.4-15.8-1.3-6.2 0-12.3 3.3-18.1 5.5-9.6 15.6-17.1 30-23 6-2.5 12.8-4.8 20.4-6.8a11.8 11.8 0 0 1-.7-2"/><path fill="#ff4154" d="M189.6 161.3a3.7 3.7 0 0 1 4.3 2.8v.2l.2 1c6.7 35.3 2 53-14.2 53-15.8 0-36-15.1-60.4-45.2a3.7 3.7 0 0 1 2.8-6H123.7a354 354 0 0 0 66-5.8m-111-26.6.7 1.2a358.4 358.4 0 0 0 38.4 54.5 3.7 3.7 0 0 1-.3 5.1v.1l-1 .7c-27.2 23.4-45 28-53.2 14-8-13.7-5-38.7 8.8-75a3.7 3.7 0 0 1 6.5-.6m124.9-52h.1l1 .3c33.7 11.7 46.6 24.6 38.5 38.7-8 13.7-31 23.7-69 30a3.7 3.7 0 0 1-3.9-5.5A359.9 359.9 0 0 0 199 84.9a3.7 3.7 0 0 1 4.4-2.3zm-119-6a3.7 3.7 0 0 1 1.3 5A359 359 0 0 0 57 143a3.7 3.7 0 0 1-4.5 2.3h-.1l-1-.4c-33.7-11.7-46.6-24.6-38.5-38.6 8-13.8 31-23.8 69-30 1-.2 1.8 0 2.5.4M192.7 19c8 13.7 5 38.7-8.8 75a3.7 3.7 0 0 1-6.5.6h-.1l-.7-1.2a358.4 358.4 0 0 0-38.4-54.5 3.7 3.7 0 0 1 .3-5.1v-.1l1-.7c27.2-23.4 45-28 53.2-14M77.5 10.6c15.8 0 35.9 15 60.3 45.1a3.7 3.7 0 0 1-2.7 6H133.7a354 354 0 0 0-66 5.8 3.7 3.7 0 0 1-4.2-2.8v-.1l-.2-1c-6.7-35.4-2-53 14.2-53"/><path fill="#ffd94c" d="M111.3 73.7h31.6A12.9 12.9 0 0 1 154 80l15.8 27.7a12.9 12.9 0 0 1 0 12.8l-15.8 27.6a12.9 12.9 0 0 1-11.2 6.5h-31.6c-4.6 0-8.9-2.5-11.2-6.5l-15.8-27.6a12.9 12.9 0 0 1 0-12.8L100 80a12.9 12.9 0 0 1 11.2-6.4m26.8 8.3c4.6 0 8.8 2.5 11.1 6.5l11.1 19.3a12.9 12.9 0 0 1 0 12.8l-11 19.3a12.9 12.9 0 0 1-11.2 6.5h-22c-4.6 0-8.9-2.5-11.2-6.5l-11-19.3a12.9 12.9 0 0 1 0-12.8l11-19.3a12.9 12.9 0 0 1 11.2-6.5zm-5.2 9.1h-11.6a12.9 12.9 0 0 0-11.2 6.5l-5.8 10.2a12.9 12.9 0 0 0 0 12.8l5.8 10.2a12.9 12.9 0 0 0 11.2 6.4h11.6c4.6 0 8.9-2.4 11.2-6.4l5.8-10.2a12.9 12.9 0 0 0 0-12.8L144 97.6a12.9 12.9 0 0 0-11.2-6.5m-5 8.8c4.6 0 8.9 2.4 11.2 6.4l.8 1.5a12.9 12.9 0 0 1 0 12.8l-.8 1.5a12.9 12.9 0 0 1-11.2 6.4h-1.6a12.9 12.9 0 0 1-11.2-6.4l-.8-1.5a12.9 12.9 0 0 1 0-12.8l.8-1.5a12.9 12.9 0 0 1 11.2-6.4zm-.8 8.6a5.7 5.7 0 0 0-5 2.8 5.7 5.7 0 0 0 0 5.8 5.7 5.7 0 0 0 10 0 5.7 5.7 0 0 0 0-5.8 5.7 5.7 0 0 0-5-2.8m-46.5 5.7h10.3"/></svg>