<svg xmlns="http://www.w3.org/2000/svg" viewBox="0 0 48 48"><path fill="#03A9F4" d="M40 20c.4-1.7 0-3.8-2.5-6-4 3.5-2.8 7.2-1.5 9 0 0-.2 1-4 1H2S.2 40 18 40c15.6 0 20-12 20.8-15H40c2.1 0 5-1.2 6-5.5-2.8-1-4.7-.5-6 .5z"/><path fill="#0288D1" d="M2.2 28C2.9 32.7 6 40 18 40c12.2 0 17.5-7.3 19.7-12H2.2z"/><path fill="#81D4FA" d="M19.8 40c-1-.4-5-1.2-5.8-7-4.2 1.9-8 1.4-9.6 1 2.2 3.2 6.2 6 13.6 6h1.8z"/><path fill="#FFF" d="M18 30a2 2 0 1 0 0 4 2 2 0 1 0 0-4Z"/><path fill="#37474F" d="M15 33.6c.1.5 0 1.2-.6 1.3-3.3 1-6.1 1.1-8.3 1.1-.6-.6-1.2-1.3-1.6-2a33 33 0 0 0 9-1c.6 0 1.2 0 1.4.6zM2 27s1.9.1 3-1c1.9 1.7 6 1 7 0 1 1.7 7 1.4 8 0 1.3 1.4 6.6 1.8 8 0 .5 1.5 6.8 1.9 8 0 1 1 5 2 7.3 0 .6 1.2 2.7 1 2.7 1v1H2m15 4a1 1 0 1 0 2 0 1 1 0 0 0-2 0z"/><path fill="#01579B" d="M11 24H6v-5h5v5zm10-5h-5v5h5v-5zm10 0h-5v5h5v-5zm-15-5h-5v5h5v-5zm10 0h-5v5h5v-5z"/><path fill="#0288D1" d="M16 24h-5v-5h5v5zm10-5h-5v5h5v-5zm0-10h-5v5h5V9zm-5 5h-5v5h5v-5z"/></svg>