<svg xmlns="http://www.w3.org/2000/svg" fill="none" viewBox="0 0 64 64"><path fill="url(#a)" d="M37.4 63c-1.6 2-5 .9-5-1.8l-.6-38.4h25.9c4.7 0 7.3 5.4 4.4 9z"/><path fill="url(#b)" fill-opacity=".2" d="M37.4 63c-1.6 2-5 .9-5-1.8l-.6-38.4h25.9c4.7 0 7.3 5.4 4.4 9z"/><path fill="#3ecf8e" d="M26.9 1c1.6-2 5-.9 5 1.8l.2 38.4H6.6a5.6 5.6 0 0 1-4.4-9z"/><defs><linearGradient id="a" x1="54" x2="94.2" y1="55" y2="71.8" gradientTransform="matrix(.5718 0 0 .5718 1 -.1)" gradientUnits="userSpaceOnUse"><stop stop-color="#249361"/><stop offset="1" stop-color="#3ECF8E"/></linearGradient><linearGradient id="b" x1="36.2" x2="54.5" y1="30.6" y2="65.1" gradientTransform="matrix(.5718 0 0 .5718 1 -.1)" gradientUnits="userSpaceOnUse"><stop/><stop offset="1" stop-opacity="0"/></linearGradient></defs></svg>