<svg xmlns="http://www.w3.org/2000/svg" width="31" height="22" fill="none"><path fill="#041A27" d="M6.95 21.32c-.72 0-1.34-.14-1.87-.4a2.9 2.9 0 0 1-1.2-1.2 4.04 4.04 0 0 1-.4-1.88v-3.67c0-.63-.11-1.08-.32-1.37-.2-.29-.54-.44-1.06-.46-.43-.03-.76-.2-.98-.5-.22-.32-.34-.7-.34-1.13 0-.45.12-.82.34-1.13.22-.3.55-.47.98-.5.52-.03.87-.18 1.06-.46.2-.28.31-.74.31-1.36v-3.7c0-1.1.3-1.96.91-2.57C5.01.4 5.86.08 6.95.08H8.7c.52 0 .93.15 1.25.46.34.28.5.66.5 1.12 0 .45-.12.83-.38 1.13-.25.29-.6.43-1.05.43H8.6c-.29 0-.5.1-.65.27-.14.16-.22.41-.22.77v3.52c0 .52-.1 1-.33 1.47-.23.45-.53.81-.91 1.1a1.9 1.9 0 0 1-1.2.43v-.1c.43 0 .83.14 1.2.42a3.18 3.18 0 0 1 1.25 2.54v3.5c0 .36.07.61.21.77.14.18.37.27.67.27h.39c.44 0 .8.14 1.05.43.26.3.39.68.39 1.13 0 .46-.17.84-.5 1.12-.33.3-.74.46-1.26.46H6.95Zm15.47 0c-.51 0-.94-.15-1.27-.46a1.45 1.45 0 0 1-.48-1.12c0-.45.12-.83.36-1.13.25-.29.61-.43 1.08-.43h.38c.3 0 .52-.1.65-.27.14-.16.22-.41.22-.77v-3.5a3 3 0 0 1 .36-1.44c.24-.46.54-.83.9-1.1a1.9 1.9 0 0 1 1.2-.44v.1c-.42 0-.82-.14-1.2-.4a3.44 3.44 0 0 1-.9-1.11 3.14 3.14 0 0 1-.36-1.47V4.26c0-.36-.08-.61-.22-.77-.13-.18-.34-.27-.65-.27h-.38c-.47 0-.83-.14-1.08-.43-.24-.3-.36-.68-.36-1.13 0-.46.16-.84.48-1.12.33-.3.76-.46 1.27-.46h1.73c.73 0 1.36.14 1.87.4.53.28.93.68 1.2 1.2.27.52.4 1.14.4 1.88v3.7c0 .62.11 1.08.32 1.36.2.28.57.43 1.08.46.43.03.76.2.98.5.23.3.34.68.34 1.13 0 .43-.11.81-.34 1.13-.22.3-.55.47-.98.5-.51.02-.87.17-1.08.46-.2.29-.31.74-.31 1.37v3.67c0 1.09-.31 1.94-.94 2.54-.6.63-1.45.94-2.54.94h-1.73Z"/><path fill="#8CD1FF" d="m19.13 2.78-5.37 15.44H11.8l5.37-15.44h1.96Z"/></svg>